<svg xmlns="http://www.w3.org/2000/svg" viewBox="0 0 800 320" width="100%" height="auto">
<defs>
  <linearGradient id="lineGrad" x1="0" y1="0" x2="0" y2="1">
    <stop offset="0%" stop-color="#58a6ff" stop-opacity="0.35" />
    <stop offset="100%" stop-color="#58a6ff" stop-opacity="0.0" />
  </linearGradient>
  <style>
    .bg { fill: #0d1117; stroke: #30363d; stroke-width: 1px; rx: 6px; }
    .title { font-family: -apple-system, BlinkMacSystemFont, 'Segoe UI', Helvetica, Arial, sans-serif; font-size: 14px; font-weight: 600; fill: #e6edf3; }
    .stat-text { font-family: -apple-system, BlinkMacSystemFont, 'Segoe UI', Helvetica, Arial, sans-serif; font-size: 13px; font-weight: 500; fill: #8b949e; }
    .grid { stroke: #21262d; stroke-width: 1px; stroke-dasharray: 4,4; }
    .axis-text { font-family: -apple-system, BlinkMacSystemFont, 'Segoe UI', Helvetica, Arial, sans-serif; font-size: 11px; fill: #7d8590; }
    .spark-line { fill: none; stroke: #58a6ff; stroke-width: 2px; stroke-linecap: round; stroke-linejoin: round; }
    .spark-point { fill: #0d1117; stroke: #58a6ff; stroke-width: 2px; }
  </style>
</defs>
<rect width="800" height="320" class="bg" />
<text x="65" y="36" class="title">Docker Pulls</text>
<text x="760" y="36" text-anchor="end" class="stat-text">3,445 total</text>
<line x1="65" y1="265.0" x2="760" y2="265.0" class="grid" />
<text x="55" y="269.0" text-anchor="end" class="axis-text">0</text>
<line x1="65" y1="216.2" x2="760" y2="216.2" class="grid" />
<text x="55" y="220.2" text-anchor="end" class="axis-text">1.0k</text>
<line x1="65" y1="167.5" x2="760" y2="167.5" class="grid" />
<text x="55" y="171.5" text-anchor="end" class="axis-text">2.0k</text>
<line x1="65" y1="118.8" x2="760" y2="118.8" class="grid" />
<text x="55" y="122.8" text-anchor="end" class="axis-text">3.0k</text>
<line x1="65" y1="70.0" x2="760" y2="70.0" class="grid" />
<text x="55" y="74.0" text-anchor="end" class="axis-text">4.0k</text>
<line x1="65.0" y1="265" x2="65.0" y2="270" stroke="#30363d" stroke-width="1px" />
<text x="65.0" y="285" text-anchor="middle" class="axis-text">Sep 09</text>
<line x1="142.2" y1="265" x2="142.2" y2="270" stroke="#30363d" stroke-width="1px" />
<text x="142.2" y="285" text-anchor="middle" class="axis-text">Sep 10</text>
<line x1="219.4" y1="265" x2="219.4" y2="270" stroke="#30363d" stroke-width="1px" />
<text x="219.4" y="285" text-anchor="middle" class="axis-text">Sep 12</text>
<line x1="296.7" y1="265" x2="296.7" y2="270" stroke="#30363d" stroke-width="1px" />
<text x="296.7" y="285" text-anchor="middle" class="axis-text">Sep 13</text>
<line x1="373.9" y1="265" x2="373.9" y2="270" stroke="#30363d" stroke-width="1px" />
<text x="373.9" y="285" text-anchor="middle" class="axis-text">Sep 16</text>
<line x1="451.1" y1="265" x2="451.1" y2="270" stroke="#30363d" stroke-width="1px" />
<text x="451.1" y="285" text-anchor="middle" class="axis-text">Sep 19</text>
<line x1="528.3" y1="265" x2="528.3" y2="270" stroke="#30363d" stroke-width="1px" />
<text x="528.3" y="285" text-anchor="middle" class="axis-text">Sep 21</text>
<line x1="605.6" y1="265" x2="605.6" y2="270" stroke="#30363d" stroke-width="1px" />
<text x="605.6" y="285" text-anchor="middle" class="axis-text">Sep 22</text>
<line x1="682.8" y1="265" x2="682.8" y2="270" stroke="#30363d" stroke-width="1px" />
<text x="682.8" y="285" text-anchor="middle" class="axis-text">Sep 23</text>
<line x1="760.0" y1="265" x2="760.0" y2="270" stroke="#30363d" stroke-width="1px" />
<text x="760.0" y="285" text-anchor="middle" class="axis-text">Sep 24</text>
<path d="M 65.0 240.1 L 142.2 209.4 L 219.4 172.9 L 296.7 155.3 L 373.9 129.5 L 451.1 118.3 L 528.3 107.0 L 605.6 97.1 L 682.8 97.1 L 760.0 97.1 L 760.0 265.0 L 65.0 265.0 Z" fill="url(#lineGrad)" />
<path d="M 65.0 240.1 L 142.2 209.4 L 219.4 172.9 L 296.7 155.3 L 373.9 129.5 L 451.1 118.3 L 528.3 107.0 L 605.6 97.1 L 682.8 97.1 L 760.0 97.1" class="spark-line" />
<circle cx="65.0" cy="240.1" r="4" class="spark-point"><title>2026-09-09: 510 pulls</title></circle>
<circle cx="142.2" cy="209.4" r="4" class="spark-point"><title>2026-09-10: 1,140 pulls</title></circle>
<circle cx="219.4" cy="172.9" r="4" class="spark-point"><title>2026-09-12: 1,890 pulls</title></circle>
<circle cx="296.7" cy="155.3" r="4" class="spark-point"><title>2026-09-13: 2,250 pulls</title></circle>
<circle cx="373.9" cy="129.5" r="4" class="spark-point"><title>2026-09-16: 2,780 pulls</title></circle>
<circle cx="451.1" cy="118.3" r="4" class="spark-point"><title>2026-09-19: 3,010 pulls</title></circle>
<circle cx="528.3" cy="107.0" r="4" class="spark-point"><title>2026-09-21: 3,241 pulls</title></circle>
<circle cx="605.6" cy="97.1" r="4" class="spark-point"><title>2026-09-22: 3,445 pulls</title></circle>
<circle cx="682.8" cy="97.1" r="4" class="spark-point"><title>2026-09-23: 3,445 pulls</title></circle>
<circle cx="760.0" cy="97.1" r="4" class="spark-point"><title>2026-09-24: 3,445 pulls</title></circle>
</svg>
