<svg xmlns="http://www.w3.org/2000/svg" viewBox="0 0 800 320" width="100%" height="auto">
<defs>
  <linearGradient id="lineGrad" x1="0" y1="0" x2="0" y2="1">
    <stop offset="0%" stop-color="#58a6ff" stop-opacity="0.35" />
    <stop offset="100%" stop-color="#58a6ff" stop-opacity="0.0" />
  </linearGradient>
  <style>
    .bg { fill: #0d1117; stroke: #30363d; stroke-width: 1px; rx: 6px; }
    .title { font-family: -apple-system, BlinkMacSystemFont, 'Segoe UI', Helvetica, Arial, sans-serif; font-size: 14px; font-weight: 600; fill: #e6edf3; }
    .stat-text { font-family: -apple-system, BlinkMacSystemFont, 'Segoe UI', Helvetica, Arial, sans-serif; font-size: 13px; font-weight: 500; fill: #8b949e; }
    .grid { stroke: #21262d; stroke-width: 1px; stroke-dasharray: 4,4; }
    .axis-text { font-family: -apple-system, BlinkMacSystemFont, 'Segoe UI', Helvetica, Arial, sans-serif; font-size: 11px; fill: #7d8590; }
    .spark-line { fill: none; stroke: #58a6ff; stroke-width: 2px; stroke-linecap: round; stroke-linejoin: round; }
    .spark-point { fill: #0d1117; stroke: #58a6ff; stroke-width: 2px; }
  </style>
</defs>
<rect width="800" height="320" class="bg" />
<text x="65" y="36" class="title">Docker Pulls</text>
<text x="760" y="36" text-anchor="end" class="stat-text">5,285 total</text>
<line x1="65" y1="265.0" x2="760" y2="265.0" class="grid" />
<text x="55" y="269.0" text-anchor="end" class="axis-text">0</text>
<line x1="65" y1="200.0" x2="760" y2="200.0" class="grid" />
<text x="55" y="204.0" text-anchor="end" class="axis-text">2.0k</text>
<line x1="65" y1="135.0" x2="760" y2="135.0" class="grid" />
<text x="55" y="139.0" text-anchor="end" class="axis-text">4.0k</text>
<line x1="65" y1="70.0" x2="760" y2="70.0" class="grid" />
<text x="55" y="74.0" text-anchor="end" class="axis-text">6.0k</text>
<line x1="65.0" y1="265" x2="65.0" y2="270" stroke="#30363d" stroke-width="1px" />
<text x="65.0" y="285" text-anchor="middle" class="axis-text">Sep 09</text>
<line x1="159.8" y1="265" x2="159.8" y2="270" stroke="#30363d" stroke-width="1px" />
<text x="159.8" y="285" text-anchor="middle" class="axis-text">Sep 13</text>
<line x1="254.5" y1="265" x2="254.5" y2="270" stroke="#30363d" stroke-width="1px" />
<text x="254.5" y="285" text-anchor="middle" class="axis-text">Sep 21</text>
<line x1="349.3" y1="265" x2="349.3" y2="270" stroke="#30363d" stroke-width="1px" />
<text x="349.3" y="285" text-anchor="middle" class="axis-text">Sep 24</text>
<line x1="444.1" y1="265" x2="444.1" y2="270" stroke="#30363d" stroke-width="1px" />
<text x="444.1" y="285" text-anchor="middle" class="axis-text">Sep 27</text>
<line x1="538.9" y1="265" x2="538.9" y2="270" stroke="#30363d" stroke-width="1px" />
<text x="538.9" y="285" text-anchor="middle" class="axis-text">Sep 30</text>
<line x1="633.6" y1="265" x2="633.6" y2="270" stroke="#30363d" stroke-width="1px" />
<text x="633.6" y="285" text-anchor="middle" class="axis-text">Oct 03</text>
<line x1="728.4" y1="265" x2="728.4" y2="270" stroke="#30363d" stroke-width="1px" />
<text x="728.4" y="285" text-anchor="middle" class="axis-text">Oct 06</text>
<line x1="760.0" y1="265" x2="760.0" y2="270" stroke="#30363d" stroke-width="1px" />
<text x="760.0" y="285" text-anchor="middle" class="axis-text">Oct 07</text>
<path d="M 65.0 248.4 L 96.6 227.9 L 128.2 203.6 L 159.8 191.9 L 191.4 174.7 L 223.0 167.2 L 254.5 159.7 L 286.1 153.0 L 317.7 153.0 L 349.3 153.0 L 380.9 152.8 L 412.5 149.5 L 444.1 149.4 L 475.7 149.4 L 507.3 149.4 L 538.9 149.3 L 570.5 149.3 L 602.0 121.5 L 633.6 106.1 L 665.2 96.5 L 696.8 93.5 L 728.4 93.4 L 760.0 93.2 L 760.0 265.0 L 65.0 265.0 Z" fill="url(#lineGrad)" />
<path d="M 65.0 248.4 L 96.6 227.9 L 128.2 203.6 L 159.8 191.9 L 191.4 174.7 L 223.0 167.2 L 254.5 159.7 L 286.1 153.0 L 317.7 153.0 L 349.3 153.0 L 380.9 152.8 L 412.5 149.5 L 444.1 149.4 L 475.7 149.4 L 507.3 149.4 L 538.9 149.3 L 570.5 149.3 L 602.0 121.5 L 633.6 106.1 L 665.2 96.5 L 696.8 93.5 L 728.4 93.4 L 760.0 93.2" class="spark-line" />
<circle cx="65.0" cy="248.4" r="4" class="spark-point"><title>2026-09-09: 510 pulls</title></circle>
<circle cx="96.6" cy="227.9" r="4" class="spark-point"><title>2026-09-10: 1,140 pulls</title></circle>
<circle cx="128.2" cy="203.6" r="4" class="spark-point"><title>2026-09-12: 1,890 pulls</title></circle>
<circle cx="159.8" cy="191.9" r="4" class="spark-point"><title>2026-09-13: 2,250 pulls</title></circle>
<circle cx="191.4" cy="174.7" r="4" class="spark-point"><title>2026-09-16: 2,780 pulls</title></circle>
<circle cx="223.0" cy="167.2" r="4" class="spark-point"><title>2026-09-19: 3,010 pulls</title></circle>
<circle cx="254.5" cy="159.7" r="4" class="spark-point"><title>2026-09-21: 3,241 pulls</title></circle>
<circle cx="286.1" cy="153.0" r="4" class="spark-point"><title>2026-09-22: 3,445 pulls</title></circle>
<circle cx="317.7" cy="153.0" r="4" class="spark-point"><title>2026-09-23: 3,445 pulls</title></circle>
<circle cx="349.3" cy="153.0" r="4" class="spark-point"><title>2026-09-24: 3,445 pulls</title></circle>
<circle cx="380.9" cy="152.8" r="4" class="spark-point"><title>2026-09-25: 3,452 pulls</title></circle>
<circle cx="412.5" cy="149.5" r="4" class="spark-point"><title>2026-09-26: 3,555 pulls</title></circle>
<circle cx="444.1" cy="149.4" r="4" class="spark-point"><title>2026-09-27: 3,558 pulls</title></circle>
<circle cx="475.7" cy="149.4" r="4" class="spark-point"><title>2026-09-28: 3,558 pulls</title></circle>
<circle cx="507.3" cy="149.4" r="4" class="spark-point"><title>2026-09-29: 3,558 pulls</title></circle>
<circle cx="538.9" cy="149.3" r="4" class="spark-point"><title>2026-09-30: 3,560 pulls</title></circle>
<circle cx="570.5" cy="149.3" r="4" class="spark-point"><title>2026-10-01: 3,561 pulls</title></circle>
<circle cx="602.0" cy="121.5" r="4" class="spark-point"><title>2026-10-02: 4,415 pulls</title></circle>
<circle cx="633.6" cy="106.1" r="4" class="spark-point"><title>2026-10-03: 4,889 pulls</title></circle>
<circle cx="665.2" cy="96.5" r="4" class="spark-point"><title>2026-10-04: 5,185 pulls</title></circle>
<circle cx="696.8" cy="93.5" r="4" class="spark-point"><title>2026-10-05: 5,276 pulls</title></circle>
<circle cx="728.4" cy="93.4" r="4" class="spark-point"><title>2026-10-06: 5,281 pulls</title></circle>
<circle cx="760.0" cy="93.2" r="4" class="spark-point"><title>2026-10-07: 5,285 pulls</title></circle>
</svg>
